<?xml version="1.0" standalone="no"?>
<!DOCTYPE svg PUBLIC "-//W3C//DTD SVG 20010904//EN"
 "http://www.w3.org/TR/2001/REC-SVG-20010904/DTD/svg10.dtd">
<svg version="1.0" xmlns="http://www.w3.org/2000/svg"
 width="65.000000pt" height="40.000000pt" viewBox="0 0 65.000000 40.000000"
 preserveAspectRatio="xMidYMid meet">

<g transform="translate(0.000000,40.000000) scale(0.100000,-0.100000)"
fill="#000000" stroke="none">
<path d="M37 354 c-4 -4 -7 -70 -7 -146 l0 -138 140 0 140 0 0 25 0 25 -105 0
-104 0 -3 118 -3 117 -25 3 c-14 2 -29 0 -33 -4z"/>
<path d="M415 350 c-84 -25 -120 -124 -77 -210 27 -54 69 -70 190 -70 l102 0
0 25 c0 25 0 25 -94 25 -85 0 -98 2 -122 23 -21 18 -27 32 -27 63 0 82 37 104
171 104 70 0 73 1 70 23 -3 21 -8 22 -93 24 -49 1 -104 -2 -120 -7z"/>
</g>
</svg>
